# xmcd
#
# Track frame offsets: 
#        150
#        15473
#        22570
#        36758
#        49198
#        62628
#        74035
#        84400
#        97522
#        107867
#        125336
#        141641
#        153945
#        167304
#
# Disc length: 2376 seconds
#
# Revision: 1
# Processed by: cddbd v1.5.2PL0 Copyright (c) Steve Scherf et al.
# Submitted via: ExactAudioCopyFreeDBPlugin 1.0
#
DISCID=a709460e
DTITLE=The Ames Brothers - There'll Always Be A Christmas
DYEAR=2017
DGENRE=Christmas
TTITLE0=The Christmas Song
TTITLE1=Deck The Halls
TTITLE2=O Holy Night (Cantique de Noel)
TTITLE3=Silver Bells
TTITLE4=What Child Is This (Greensleeves)
TTITLE5=Jingle Bells
TTITLE6=Good King Wenceslas
TTITLE7=The Night Before Christmas Song
TTITLE8=Santa Claus Is Comin' To Town
TTITLE9=C H R I S T M A S
TTITLE10=Go Tell It On The Mountain
TTITLE11=There'll Always Be A Christmas
TTITLE12=I Got A Cold For Christmas
TTITLE13=I've Got My Love To Keep Me Warm
EXTD=
EXTT0=
EXTT1=
EXTT2=
EXTT3=
EXTT4=
EXTT5=
EXTT6=
EXTT7=
EXTT8=
EXTT9=
EXTT10=
EXTT11=
EXTT12=
EXTT13=
PLAYORDER=
